<svg xmlns="http://www.w3.org/2000/svg" xmlns:xlink="http://www.w3.org/1999/xlink">
    <symbol>
        <!-- ícone de carrinho -->
        <g id="hpa-cart">
            <path d="M0 0 C2.999728 0.71796769 4.86427516 2.00597378 6.62109375 4.5703125 C8.10502996 8.4665963 7.74663776 12.47929956 7.3828125 16.5703125 C10.3528125 16.5703125 13.3228125 16.5703125 16.3828125 16.5703125 C16.3828125 31.0903125 16.3828125 45.6103125 16.3828125 60.5703125 C3.8428125 60.5703125 -8.6971875 60.5703125 -21.6171875 60.5703125 C-21.6171875 46.0503125 -21.6171875 31.5303125 -21.6171875 16.5703125 C-18.6471875 16.5703125 -15.6771875 16.5703125 -12.6171875 16.5703125 C-12.70419922 15.59191406 -12.70419922 15.59191406 -12.79296875 14.59375 C-13.20845452 6.545197 -13.20845452 6.545197 -10.7421875 2.9453125 C-6.94906591 0.06254009 -4.68030593 -0.32133444 0 0 Z M-7.9921875 5.0078125 C-10.45658938 8.89398469 -9.8847562 12.02164459 -9.6171875 16.5703125 C-4.9971875 16.5703125 -0.3771875 16.5703125 4.3828125 16.5703125 C4.93629779 10.45781464 4.93629779 10.45781464 2.7578125 5.0078125 C-1.16913064 2.6309785 -4.06524436 2.6309785 -7.9921875 5.0078125 Z M-18.6171875 19.5703125 C-18.6171875 32.4403125 -18.6171875 45.3103125 -18.6171875 58.5703125 C-8.0571875 58.5703125 2.5028125 58.5703125 13.3828125 58.5703125 C13.3828125 45.7003125 13.3828125 32.8303125 13.3828125 19.5703125 C11.4028125 19.5703125 9.4228125 19.5703125 7.3828125 19.5703125 C7.3828125 21.5503125 7.3828125 23.5303125 7.3828125 25.5703125 C6.3928125 25.5703125 5.4028125 25.5703125 4.3828125 25.5703125 C4.3828125 23.5903125 4.3828125 21.6103125 4.3828125 19.5703125 C-0.2371875 19.5703125 -4.8571875 19.5703125 -9.6171875 19.5703125 C-9.6171875 21.5503125 -9.6171875 23.5303125 -9.6171875 25.5703125 C-10.6071875 25.5703125 -11.5971875 25.5703125 -12.6171875 25.5703125 C-12.6171875 23.5903125 -12.6171875 21.6103125 -12.6171875 19.5703125 C-14.5971875 19.5703125 -16.5771875 19.5703125 -18.6171875 19.5703125 Z " fill="#000000" transform="translate(32.6171875,-0.5703125)"/>
        </g>
        <!-- icone de login -->
        <g id="hpa-profile">
            <path d="M1 1L9 9L17 1" stroke="#2F2B2D"/>
        </g>
    </symbol>
</svg>