<svg xmlns="http://www.w3.org/2000/svg" version="1.1" xmlns:xlink="http://www.w3.org/1999/xlink" width="512" height="512" x="0" y="0" viewBox="0 0 512 512" style="enable-background:new 0 0 512 512" xml:space="preserve" class=""><g><linearGradient id="a" x1="256" x2="256" y1="470" y2="0" gradientUnits="userSpaceOnUse"><stop stop-opacity="1" stop-color="#ff3eb5" offset="0"></stop><stop stop-opacity="1" stop-color="#fc87fc" offset="1"></stop></linearGradient><path fill="url(#a)" d="M268.116 406.156a14.999 14.999 0 0 1-.116 17.843l-30 40c-4.971 6.627-14.372 7.97-21 3-6.627-4.971-7.971-14.373-3-21l12.637-16.85C97.409 421.692 0 365.455 0 295c0-25.03 12.475-49.271 36.074-70.101 6.21-5.482 15.689-4.891 21.171 1.319l.001.001c5.482 6.21 4.891 15.689-1.319 21.171l-.001.001C38.723 262.576 30 278.594 30 295c0 25.686 22.697 51.72 62.273 71.425 36.342 18.096 82.931 29.391 133.506 32.614l-11.895-16.296c-4.884-6.691-3.419-16.075 3.272-20.959s16.075-3.419 20.959 3.272zm207.811-181.257c-6.211-5.482-15.69-4.891-21.172 1.32s-4.892 15.69 1.319 21.172C473.277 262.576 482 278.595 482 295c0 26.471-22.584 46.981-41.529 59.526-28.749 19.037-70.037 33.391-116.258 40.419-8.19 1.245-13.82 8.893-12.575 17.083v.002c1.245 8.189 8.893 13.819 17.082 12.574h.002c51.168-7.78 95.538-23.363 128.312-45.064C492.993 355.729 512 326.495 512 295c0-25.029-12.474-49.27-36.073-70.101zm-314.073-59.9c8.855 9.026 14.325 21.388 14.325 35.001 0 27.57-22.43 50-50 50-24.806 0-46.094-18.505-49.519-43.045a50.56 50.56 0 0 1-.482-6.955c0-8.284 6.716-15 15-15s15 6.716 15 15c0 .937.065 1.882.195 2.809C107.74 212.61 116.255 220 126.179 220c11.028 0 20-8.972 20-20s-8.972-20.001-20-20.001c-8.284 0-15-6.716-15-15s6.716-15 15-15c11.028 0 20-8.972 20-19.999 0-11.028-8.972-20-20-20-9.538 0-17.791 6.774-19.625 16.107-1.597 8.129-9.481 13.424-17.61 11.827s-13.424-9.481-11.827-17.61C81.708 96.959 102.342 80 126.18 80c27.57 0 50 22.43 50 50 0 13.613-5.47 25.974-14.326 34.999zm146.172 29.077c0 30.837-25.087 55.924-55.923 55.924-30.837 0-55.924-25.087-55.924-55.924 0-2.923.228-5.793.662-8.596 7.977-65.963 54.203-101.048 56.176-102.517 6.648-4.943 16.043-3.563 20.988 3.084 4.933 6.632 3.57 16-3.037 20.953-.313.239-14.453 11.195-26.845 31.73a56.017 56.017 0 0 1 7.98-.579c30.836.001 55.923 25.088 55.923 55.925zm-30 0c0-14.295-11.629-25.924-25.923-25.924-14.295 0-25.924 11.629-25.924 25.924S237.809 220 252.104 220c14.293 0 25.922-11.629 25.922-25.924zm157.794 2.027v-62.205c0-29.719-24.178-53.897-53.896-53.897s-53.897 24.179-53.897 53.897v62.205c0 29.719 24.179 53.897 53.897 53.897s53.896-24.179 53.896-53.897zm-30-62.206v62.205c0 13.177-10.72 23.897-23.896 23.897s-23.897-10.721-23.897-23.897v-62.205c0-13.177 10.721-23.897 23.897-23.897s23.896 10.721 23.896 23.897zM512 45c0-24.813-20.187-45-45-45s-45 20.187-45 45 20.187 45 45 45 45-20.187 45-45zm-30 0c0 8.271-6.729 15-15 15s-15-6.729-15-15 6.729-15 15-15 15 6.729 15 15z" opacity="1" data-original="url(#a)" class=""></path></g></svg>