<?xml version="1.0" encoding="UTF-8"?>
<svg id="Camada_1" xmlns="http://www.w3.org/2000/svg" version="1.1" xmlns:xlink="http://www.w3.org/1999/xlink" viewBox="0 0 1080 143.83">
  <!-- Generator: Adobe Illustrator 29.0.0, SVG Export Plug-In . SVG Version: 2.1.0 Build 186)  -->
  <defs>
    <style>
      .st0 {
        fill: #fff;
      }

      .st1 {
        filter: url(#drop-shadow-1);
      }
    </style>
    <filter id="drop-shadow-1" x="97" y="36.83" width="929" height="81" filterUnits="userSpaceOnUse">
      <feOffset dx="3" dy="5"/>
      <feGaussianBlur result="blur" stdDeviation="4"/>
      <feFlood flood-color="#1d1d1b" flood-opacity=".75"/>
      <feComposite in2="blur" operator="in"/>
      <feComposite in="SourceGraphic"/>
    </filter>
  </defs>
  <g class="st1">
    <g>
      <path class="st0" d="M137.63,100.06c-1.19,0-2.35-.48-3.19-1.32l-22.78-22.78c-7.14-7.14-7.14-18.76,0-25.9,7.14-7.14,18.76-7.14,25.9,0l.07.07.07-.07c3.45-3.45,8.05-5.36,12.95-5.36h0c4.9,0,9.5,1.9,12.95,5.36,7.14,7.14,7.14,18.76,0,25.9l-22.78,22.78c-.84.84-2,1.32-3.19,1.32ZM124.61,48.35c-3.76,0-7.51,1.43-10.38,4.29-5.72,5.72-5.72,15.03,0,20.75l22.78,22.78c.33.33.91.33,1.24,0l22.78-22.78c5.72-5.72,5.72-15.03,0-20.75-2.77-2.77-6.45-4.29-10.38-4.29h0c-3.92,0-7.61,1.52-10.37,4.29l-1.36,1.36c-.71.71-1.86.71-2.57,0l-1.36-1.36c-2.86-2.86-6.62-4.29-10.38-4.29Z"/>
      <g>
        <path class="st0" d="M394.95,100.06c-.67,0-1.3-.37-1.61-.98l-13.29-25.38-22.6-12.83c-.64-.37-1-1.09-.91-1.82.1-.73.63-1.34,1.35-1.52l49.05-12.76c.62-.16,1.28.01,1.73.46.46.45.64,1.1.49,1.72l-12.45,51.72c-.18.74-.79,1.29-1.55,1.38-.08,0-.15.01-.22.01ZM363.14,59.92l19.17,10.88c.3.17.55.43.71.74l11.29,21.56,10.6-44.05-41.77,10.87Z"/>
        <path class="st0" d="M381.41,74.2c-.47,0-.93-.18-1.29-.54-.71-.71-.71-1.87,0-2.57l25.98-25.86c.71-.71,1.87-.71,2.57,0,.71.71.71,1.87,0,2.57l-25.98,25.86c-.36.35-.82.53-1.28.53Z"/>
      </g>
      <path class="st0" d="M283.9,100.06c-.24,0-.49-.05-.72-.15l-10.07-4.32c-4.49,2.92-9.68,4.46-15.07,4.46-15.26,0-27.68-12.42-27.68-27.68s12.42-27.68,27.68-27.68,27.68,12.42,27.68,27.68c0,5.69-1.7,11.11-4.92,15.75l4.72,9.29c.35.68.23,1.51-.29,2.07-.35.38-.84.58-1.33.58ZM258.04,48.34c-13.25,0-24.04,10.78-24.04,24.04s10.78,24.04,24.04,24.04c4.98,0,9.76-1.51,13.82-4.38.52-.37,1.18-.43,1.77-.19l6.37,2.73-2.95-5.8c-.32-.62-.25-1.37.17-1.92,3.18-4.2,4.85-9.21,4.85-14.48,0-13.25-10.78-24.04-24.04-24.04Z"/>
    </g>
    <path class="st0" d="M1009.03,100.06c-.48,0-.95-.19-1.3-.54l-21.04-21.43-21.04,21.43c-.52.53-1.3.69-1.99.41-.68-.28-1.13-.95-1.13-1.68v-51.72c0-1.01.82-1.82,1.82-1.82h44.69c1.01,0,1.82.82,1.82,1.82v51.72c0,.74-.45,1.41-1.13,1.68-.22.09-.46.14-.69.14ZM986.69,73.66c.49,0,.96.2,1.3.54l19.22,19.58v-45.44h-41.05v45.44l19.22-19.58c.34-.35.81-.54,1.3-.54Z"/>
  </g>
</svg>