<svg width="62" height="62" viewBox="0 0 62 62" fill="none" xmlns="http://www.w3.org/2000/svg">
<path d="M2.73972 19.2181C2.62862 19.2181 2.52206 19.174 2.4435 19.0954C2.36494 19.0169 2.3208 18.9103 2.3208 18.7992V12.1577C2.3208 12.0466 2.36494 11.94 2.4435 11.8615C2.52206 11.7829 2.62862 11.7388 2.73972 11.7388H9.38377C9.49488 11.7388 9.60143 11.7829 9.67999 11.8615C9.75856 11.94 9.80269 12.0466 9.80269 12.1577C9.80269 12.2688 9.75856 12.3753 9.67999 12.4539C9.60143 12.5325 9.49488 12.5766 9.38377 12.5766H3.15864V18.7992C3.15864 18.9103 3.1145 19.0169 3.03594 19.0954C2.95738 19.174 2.85082 19.2181 2.73972 19.2181ZM59.7127 19.2181C59.6016 19.2181 59.495 19.174 59.4165 19.0954C59.3379 19.0169 59.2938 18.9103 59.2938 18.7992V12.5766H53.0711C52.96 12.5766 52.8535 12.5325 52.7749 12.4539C52.6964 12.3753 52.6522 12.2688 52.6522 12.1577C52.6522 12.0466 52.6964 11.94 52.7749 11.8615C52.8535 11.7829 52.96 11.7388 53.0711 11.7388H59.7127C59.8238 11.7388 59.9303 11.7829 60.0089 11.8615C60.0875 11.94 60.1316 12.0466 60.1316 12.1577V18.7992C60.1316 18.9103 60.0875 19.0169 60.0089 19.0954C59.9303 19.174 59.8238 19.2181 59.7127 19.2181ZM9.38377 50.2609H2.73972C2.62862 50.2609 2.52206 50.2167 2.4435 50.1382C2.36494 50.0596 2.3208 49.9531 2.3208 49.842V43.2004C2.3208 43.0893 2.36494 42.9828 2.4435 42.9042C2.52206 42.8256 2.62862 42.7815 2.73972 42.7815C2.85082 42.7815 2.95738 42.8256 3.03594 42.9042C3.1145 42.9828 3.15864 43.0893 3.15864 43.2004V49.423H9.38377C9.49488 49.423 9.60143 49.4672 9.67999 49.5457C9.75856 49.6243 9.80269 49.7309 9.80269 49.842C9.80269 49.9531 9.75856 50.0596 9.67999 50.1382C9.60143 50.2167 9.49488 50.2609 9.38377 50.2609ZM59.7127 50.2609H53.0711C52.96 50.2609 52.8535 50.2167 52.7749 50.1382C52.6964 50.0596 52.6522 49.9531 52.6522 49.842C52.6522 49.7309 52.6964 49.6243 52.7749 49.5457C52.8535 49.4672 52.96 49.423 53.0711 49.423H59.2938V43.2004C59.2938 43.0893 59.3379 42.9828 59.4165 42.9042C59.495 42.8256 59.6016 42.7815 59.7127 42.7815C59.8238 42.7815 59.9303 42.8256 60.0089 42.9042C60.0875 42.9828 60.1316 43.0893 60.1316 43.2004V49.842C60.1316 49.9531 60.0875 50.0596 60.0089 50.1382C59.9303 50.2167 59.8238 50.2609 59.7127 50.2609ZM15.4045 16.3167H17.3776V45.6838H15.4045V16.3167ZM12.4963 16.3167H13.9282V45.6838H12.4963V16.3167ZM28.5192 16.3167H30.9464V45.6838H28.5192V16.3167ZM23.0389 16.3167H24.1213V45.6838H23.0389V16.3167ZM25.291 16.3167H26.8963V45.6838H25.291V16.3167ZM7.8011 16.3167H10.5241V45.6838H7.8011V16.3167ZM18.9443 16.3167H21.6279V45.6838H18.9443V16.3167ZM48.4086 45.6829H46.4355V16.3159H48.4086V45.6829ZM51.3477 45.6829H49.9159V16.3159H51.3477V45.6829ZM40.5363 45.6829H39.4538V16.3159H40.5363V45.6829ZM34.1586 45.6829H32.8315V16.3159H34.1586V45.6829ZM37.8937 45.6829H36.2884V16.3159H37.8937V45.6829ZM55.3827 45.6829H53.0703V16.3159H55.3827V45.6829ZM44.6333 45.6829H41.9497V16.3159H44.6333V45.6829Z" fill="white"/>
<path d="M59.282 29.6382V32.3612H3.17035V29.6382H59.282Z" fill="#FF3EB5"/>
</svg>
