<svg width="73" height="73" viewBox="0 0 73 73" fill="none" xmlns="http://www.w3.org/2000/svg">
<path d="M27.7811 50.258C35.3977 50.258 41.5722 44.0835 41.5722 36.4669C41.5722 28.8503 35.3977 22.6758 27.7811 22.6758C20.1645 22.6758 13.99 28.8503 13.99 36.4669C13.99 44.0835 20.1645 50.258 27.7811 50.258Z" fill="white"/>
<path d="M45.1525 50.258C52.7692 50.258 58.9436 44.0835 58.9436 36.4669C58.9436 28.8503 52.7692 22.6758 45.1525 22.6758C37.5359 22.6758 31.3615 28.8503 31.3615 36.4669C31.3615 44.0835 37.5359 50.258 45.1525 50.258Z" fill="#ADACA6"/>
<path fill-rule="evenodd" clip-rule="evenodd" d="M36.4669 25.8583C38.0589 27.1448 39.343 28.7712 40.2251 30.6182C41.1072 32.4653 41.5651 34.4863 41.5651 36.5331C41.5651 38.58 41.1072 40.601 40.2251 42.448C39.343 44.2951 38.0589 45.9214 36.4669 47.208C34.8629 45.922 33.5684 44.2921 32.6788 42.4387C31.7893 40.5853 31.3275 38.5558 31.3275 36.5C31.3275 34.4442 31.7893 32.4146 32.6788 30.5612C33.5684 28.7079 34.8629 27.1443 36.4669 25.8583Z" fill="#ADACA6"/>
<mask id="mask0_240_388" style="mask-type:luminance" maskUnits="userSpaceOnUse" x="31" y="25" width="11" height="23">
<path d="M36.4669 25.8583C38.0589 27.1448 39.343 28.7712 40.2251 30.6182C41.1072 32.4653 41.5651 34.4863 41.5651 36.5331C41.5651 38.58 41.1072 40.601 40.2251 42.448C39.343 44.2951 38.0589 45.9214 36.4669 47.208C34.8629 45.922 33.5684 44.2921 32.6788 42.4387C31.7893 40.5853 31.3275 38.5558 31.3275 36.5C31.3275 34.4442 31.7893 32.4146 32.6788 30.5612C33.5684 28.7079 34.8629 27.1443 36.4669 25.8583Z" fill="white"/>
</mask>
<g mask="url(#mask0_240_388)">
<path fill-rule="evenodd" clip-rule="evenodd" d="M28.842 28.5103H45.2852V30.3004H28.842V28.5103ZM28.842 32.0243H45.2852V33.8145H28.842V32.0243ZM28.842 35.6047H45.2852V37.3949H28.842V35.6047ZM28.842 39.1188H45.2852V40.909H28.842V39.1188ZM28.842 42.6329H45.2852V44.4231H28.842V42.6329Z" fill="white"/>
</g>
</svg>
