<svg width="73" height="73" viewBox="0 0 73 73" fill="none" xmlns="http://www.w3.org/2000/svg">
<g clip-path="url(#clip0_240_374)">
<path d="M29.2296 25.6372L25.5197 47.4087H31.4532L35.1662 25.6372H29.2296ZM20.5445 25.6616L14.7331 40.5092L14.1135 38.2673C12.9674 35.5661 9.71372 31.6867 5.89386 29.2419L11.2078 47.398L17.4862 47.3873L26.8306 25.657L20.5445 25.6616Z" fill="white"/>
<path d="M11.8609 27.2197C11.516 25.8935 10.5164 25.4982 9.2757 25.4509H0.0763056L0 25.8843C7.15899 27.621 11.896 31.8056 13.8617 36.8372L11.8609 27.2197ZM47.1919 29.811C48.7141 29.7771 50.2266 30.0609 51.6329 30.6442L52.1686 30.8961L52.9713 26.1773C51.7962 25.7363 49.9542 25.2632 47.6559 25.2632C41.7926 25.2632 37.6598 28.2162 37.6278 32.4481C37.5896 35.5751 40.5717 37.321 42.8242 38.3633C45.1363 39.4316 45.9115 40.1107 45.9008 41.0645C45.8825 42.522 44.0573 43.1904 42.3526 43.1904C39.9765 43.1904 38.7144 42.8623 36.7655 42.0504L36.001 41.7024L35.1662 46.5753C36.5549 47.1842 39.1173 47.7077 41.7773 47.7352C48.0145 47.7352 52.0679 44.8172 52.1106 40.2954C52.1365 37.8215 50.554 35.9338 47.1248 34.3847C45.0493 33.3745 43.7795 32.703 43.7918 31.6835C43.7918 30.7785 44.8692 29.811 47.1919 29.811ZM68.1989 25.6615H63.6144C62.1906 25.6615 61.1314 26.0491 60.5057 27.4684L51.6955 47.4208H57.9266C57.9266 47.4208 58.943 44.7379 59.1734 44.1503L66.7719 44.1595C66.949 44.9195 67.4953 47.4208 67.4953 47.4208H73L68.1989 25.6615ZM60.8812 39.6941C61.3695 38.4442 63.2451 33.6095 63.2451 33.6095C63.2131 33.669 63.7289 32.3504 64.0356 31.5309L64.4355 33.408L65.8105 39.6941H60.8812Z" fill="white"/>
</g>
<defs>
<clipPath id="clip0_240_374">
<rect width="73" height="73" fill="white"/>
</clipPath>
</defs>
</svg>
