<svg xmlns="http://www.w3.org/2000/svg" version="1.1" xmlns:xlink="http://www.w3.org/1999/xlink" width="512" height="512" x="0" y="0" viewBox="0 0 512 512" style="enable-background:new 0 0 512 512" xml:space="preserve" class=""><g><path fill="#ff3eb5" d="M512.5 255.8c0-49.3-2.5-93.9-9.9-119.7-8.7-30.2-18.2-57.8-44.7-82.2C426.3 24.9 397.6 15.1 356 7c-30.9-6-66.9-7.3-89.4-7.2h-20.1C224-.3 188 1 157.1 7c-41.6 8.1-70.3 17.9-101.9 47-26.5 24.4-36 52-44.7 82.2C3 162 .5 206.6.5 255.8v.2c0 49.2 2.5 93.8 9.9 119.6 8.7 30.2 18.2 57.8 44.7 82.2 31.6 29.1 60.3 38.9 101.9 47 36 7 78.8 7.6 99.2 7l.2.2.2-.2c20.5.6 63.3-.1 99.2-7 41.6-8.1 70.3-17.9 101.9-47 26.5-24.4 36-52 44.7-82.2 7.6-25.8 10.1-70.5 10.1-119.8z" opacity="1" data-original="#379df1" class=""></path><path fill="#ffffff" d="M388.6 198.3c-4-4-9.4-6.3-15-6.3H331v-10.6c0-41.2-33.3-74.5-74.5-74.5S182 140.2 182 181.4V192h-42.6c-11.8 0-21.3 9.5-21.3 21.3V357c0 25.9 22 47.9 47.9 47.9h181c12.6 0 24.6-4.9 33.6-13.6 9.1-8.7 14.3-20.8 14.3-33.4V213.3c0-5.6-2.2-11-6.3-15zm-185.3-16.9c0-29.4 23.8-53.2 53.2-53.2s53.2 23.8 53.2 53.2V192H203.3zM331 245.3c0 41.2-33.3 74.5-74.5 74.5S182 286.4 182 245.3v-10.6c0-5.9 4.8-10.6 10.6-10.6 5.9 0 10.6 4.8 10.6 10.6v10.6c0 29.4 23.8 53.2 53.2 53.2s53.2-23.8 53.2-53.2v-10.6c0-5.9 4.8-10.6 10.6-10.6 5.9 0 10.6 4.8 10.6 10.6v10.6z" opacity="1" data-original="#ffffff" class=""></path></g></svg>