<svg id="Layer_1" data-name="Layer 1" xmlns="http://www.w3.org/2000/svg" viewBox="0 0 122 50"><defs><style>.cls-1{fill:#ffa100;}.cls-2{fill:#004165;}</style></defs><path class="cls-1" d="M54.11,24.37l1.59-3.26a3.22,3.22,0,0,0,2.19,1.23c.56,0,.85-.2.85-.61s-.39-.66-1.15-.94q-3.08-1.08-3.08-3.45a3.63,3.63,0,0,1,1.37-2.88,5.25,5.25,0,0,1,3.45-1.14,7.44,7.44,0,0,1,3.51,1l-1.49,3.19a3,3,0,0,0-1.8-1c-.45,0-.68.18-.68.55s.43.77,1.3,1.12a5.46,5.46,0,0,1,2.22,1.36,2.91,2.91,0,0,1,.63,2,3.77,3.77,0,0,1-1.32,3,5,5,0,0,1-3.39,1.15,7.77,7.77,0,0,1-2-.25,6.84,6.84,0,0,1-1-.36C55,24.8,54.57,24.61,54.11,24.37Z"/><path class="cls-1" d="M69.22,9.92a2.45,2.45,0,0,1-.75,1.79,2.52,2.52,0,0,1-1.8.74,2.45,2.45,0,0,1-1.8-.75,2.52,2.52,0,0,1-.74-1.81,2.45,2.45,0,0,1,.74-1.8,2.51,2.51,0,0,1,1.79-.74,2.56,2.56,0,0,1,2.56,2.57Zm-.37,15.42H64.47V13.57h4.38Z"/><path class="cls-1" d="M75.84,25.34H71.47V17.09H70.22V13.57h1.25V10.11h4.37v3.46h1.45v3.52H75.84Z"/><path class="cls-1" d="M84.62,21.36l4.27.09a5.22,5.22,0,0,1-1.78,3.09,5.4,5.4,0,0,1-3.46,1,5.09,5.09,0,0,1-4-1.57,6.24,6.24,0,0,1-1.43-4.34,6.64,6.64,0,0,1,1.54-4.56,5,5,0,0,1,4-1.78A4.76,4.76,0,0,1,87.61,15a6.88,6.88,0,0,1,1.44,4.56l0,.78h-6.4c.05,1.2.39,1.81,1,1.81A1,1,0,0,0,84.62,21.36Zm.1-3.33a2.23,2.23,0,0,0-.08-.6,1.56,1.56,0,0,0-.21-.47,1,1,0,0,0-.32-.31.75.75,0,0,0-.4-.12A.87.87,0,0,0,83,17,2,2,0,0,0,82.68,18Z"/><path class="cls-2" d="M54,36.11l1.59-3.26a3.22,3.22,0,0,0,2.19,1.23c.56,0,.85-.21.85-.61s-.39-.66-1.15-.94q-3.07-1.09-3.08-3.45a3.61,3.61,0,0,1,1.37-2.88,5.25,5.25,0,0,1,3.45-1.14,7.44,7.44,0,0,1,3.51,1l-1.49,3.19a3,3,0,0,0-1.8-1c-.45,0-.68.19-.68.56s.43.77,1.3,1.12a5.46,5.46,0,0,1,2.22,1.36,2.9,2.9,0,0,1,.63,2,3.77,3.77,0,0,1-1.32,3,5,5,0,0,1-3.39,1.15,7.77,7.77,0,0,1-2-.25,6.84,6.84,0,0,1-1-.36Z"/><path class="cls-2" d="M70.4,33.1l4.27.08a5.25,5.25,0,0,1-1.78,3.1,5.48,5.48,0,0,1-3.46,1,5.1,5.1,0,0,1-4-1.57A6.27,6.27,0,0,1,64,31.41a6.69,6.69,0,0,1,1.53-4.56,5,5,0,0,1,4-1.78,4.77,4.77,0,0,1,3.85,1.71,6.88,6.88,0,0,1,1.44,4.56l0,.78H68.4c0,1.2.4,1.8,1,1.8A1,1,0,0,0,70.4,33.1Zm.1-3.34a2.35,2.35,0,0,0-.08-.6,1.5,1.5,0,0,0-.21-.46,1,1,0,0,0-.32-.31.75.75,0,0,0-.41-.12.87.87,0,0,0-.74.42,1.87,1.87,0,0,0-.28,1.07Z"/><path class="cls-2" d="M86.93,25.31V37.42a6.85,6.85,0,0,1-.38,2.39,3.88,3.88,0,0,1-1.25,1.61,5.86,5.86,0,0,1-3.68,1.12,5.77,5.77,0,0,1-3.69-1,4.84,4.84,0,0,1-1.59-3.22h4.47c0,.64.33,1,.91,1a.85.85,0,0,0,.79-.39,2.69,2.69,0,0,0,.22-1.28V35.71A3.37,3.37,0,0,1,80,37.23a3.18,3.18,0,0,1-2.77-1.66,8.21,8.21,0,0,1-1-4.38,8.48,8.48,0,0,1,1-4.42A3.15,3.15,0,0,1,80,25.06a2.38,2.38,0,0,1,1.35.39,5.34,5.34,0,0,1,1.29,1.41l-.08-1.55Zm-4.24,5.85c0-1.7-.31-2.55-.94-2.55s-1,.83-1,2.48.34,2.56,1,2.56S82.69,32.82,82.69,31.16Z"/><path class="cls-2" d="M88.94,25.31h4.37v6.63a3.87,3.87,0,0,0,.18,1.38.77.77,0,0,0,.74.36.73.73,0,0,0,.72-.36,3.25,3.25,0,0,0,.2-1.38V25.31h4.37v7.22a6.46,6.46,0,0,1-.12,1.3A3.9,3.9,0,0,1,99,34.89a3.46,3.46,0,0,1-.63.86,4.9,4.9,0,0,1-.92.72,6.24,6.24,0,0,1-3.26.85A6.16,6.16,0,0,1,91,36.47a4.37,4.37,0,0,1-.93-.71,3.33,3.33,0,0,1-.63-.87,3.58,3.58,0,0,1-.36-1.06,6.46,6.46,0,0,1-.12-1.3Z"/><path class="cls-2" d="M105.91,37.08h-4.37V25.31h4.37l-.23,2.3c.66-1.72,1.75-2.58,3.28-2.58v4.9a2.73,2.73,0,0,0-1.22-.4,1.61,1.61,0,0,0-1.36.64,3.15,3.15,0,0,0-.47,1.86Z"/><path class="cls-2" d="M121,31.38a6.1,6.1,0,0,1-1.5,4.33,5.26,5.26,0,0,1-4,1.61,5,5,0,0,1-4-1.64,6.47,6.47,0,0,1-1.46-4.45,6.47,6.47,0,0,1,1.49-4.47,5,5,0,0,1,3.93-1.7,5.08,5.08,0,0,1,4,1.69A6.81,6.81,0,0,1,121,31.38Zm-4.24-.15a8.42,8.42,0,0,0-.08-1.18,3.88,3.88,0,0,0-.25-.9,1.53,1.53,0,0,0-.4-.58.73.73,0,0,0-.51-.21c-.37,0-.67.26-.89.78a4.8,4.8,0,0,0-.34,2.06,4.86,4.86,0,0,0,.34,2.06c.22.52.53.78.9.78s.65-.25.89-.77A5.45,5.45,0,0,0,116.76,31.23Z"/><g id="_2" data-name="2"><path class="cls-2" d="M16.71,24.8a4.5,4.5,0,0,1-.85.29,3.81,3.81,0,0,1-.82.09,3.9,3.9,0,0,1-1.54-.32,4.47,4.47,0,0,1-1.34-.94,4.71,4.71,0,0,1-1.09-1.82,8.2,8.2,0,0,1-.35-2.52,6.11,6.11,0,0,1,1.19-3.92,3.68,3.68,0,0,1,3-1.51,5.26,5.26,0,0,1,.89.07,6.17,6.17,0,0,1,.87.23V17a2.65,2.65,0,0,0-.56-.23,2,2,0,0,0-.53-.08,1.47,1.47,0,0,0-1.34.75,4.18,4.18,0,0,0-.46,2.19,4.15,4.15,0,0,0,.45,2.12,1.44,1.44,0,0,0,1.29.74,2,2,0,0,0,.59-.09,2.14,2.14,0,0,0,.56-.25Z"/><path class="cls-2" d="M23.54,22.37a3.16,3.16,0,0,1-1,2.06,3.2,3.2,0,0,1-2.19.75,3,3,0,0,1-2.43-1,4.44,4.44,0,0,1-.85-2.9,4.48,4.48,0,0,1,.86-2.92,2.93,2.93,0,0,1,2.4-1,3.21,3.21,0,0,1,2.52.92A4.1,4.1,0,0,1,23.66,21c0,.14,0,.26,0,.33a1.36,1.36,0,0,1,0,.21H19.69v.1a2.81,2.81,0,0,0,.18,1.18.64.64,0,0,0,.61.36A.66.66,0,0,0,21,23a1.24,1.24,0,0,0,.28-.62Zm-3.85-2.06h1.59a1.72,1.72,0,0,0-.2-.95.64.64,0,0,0-.6-.32.55.55,0,0,0-.5.31A2.42,2.42,0,0,0,19.69,20.31Z"/><path class="cls-2" d="M24,25V17.52h2.54v1a2.56,2.56,0,0,1,.85-.88,2.65,2.65,0,0,1,1.17-.37v2.62h-.06a2,2,0,0,0-1.39.38,1.77,1.77,0,0,0-.4,1.34V25Z"/><path class="cls-2" d="M29.78,25V19.88h-.89V17.52h.89V15.33H32.5v2.19h1v2.36h-1V25Z"/><circle class="cls-2" cx="35.71" cy="15.32" r="1.58"/><path class="cls-2" d="M36.39,17.2H35a1.23,1.23,0,0,0-1.22,1.23v2.21a1.44,1.44,0,0,0,.46,1.05.64.64,0,0,1,.16.29l.43,2.37a.64.64,0,0,0,.59.59H36a.63.63,0,0,0,.59-.59L37,22a.63.63,0,0,1,.17-.31,1.41,1.41,0,0,0,.45-1V18.43A1.23,1.23,0,0,0,36.39,17.2Z"/><path class="cls-1" d="M12.72,30.63a6.33,6.33,0,0,0,1.16.76,2.06,2.06,0,0,0,.93.26.81.81,0,0,0,.58-.21.66.66,0,0,0,.23-.53c0-.25-.25-.61-.77-1.1l0,0a9.1,9.1,0,0,1-1.7-1.9,2.91,2.91,0,0,1-.38-1.45,2.94,2.94,0,0,1,.91-2.21A3.26,3.26,0,0,1,16,23.35a4.83,4.83,0,0,1,1.16.16,6.58,6.58,0,0,1,1.23.45v2.75a4.74,4.74,0,0,0-1-.63,2,2,0,0,0-.85-.22A.76.76,0,0,0,16,26a.57.57,0,0,0-.21.46c0,.27.26.6.76,1l.09.07a7.22,7.22,0,0,1,1.71,1.75,3.17,3.17,0,0,1,.39,1.61,3.28,3.28,0,0,1-1,2.49,3.6,3.6,0,0,1-2.59.94,4,4,0,0,1-1.23-.2,5,5,0,0,1-1.23-.61Z"/><path class="cls-1" d="M19,24.19a1.51,1.51,0,0,1,.46-1.14,1.55,1.55,0,0,1,1.14-.46,1.51,1.51,0,0,1,1.13.46,1.55,1.55,0,0,1,.46,1.14,1.58,1.58,0,0,1-.46,1.13A1.59,1.59,0,0,1,19,24.19Zm.25,10V26.72h2.69v7.43Z"/><path class="cls-1" d="M26.28,26.71h2.55v7.1A2.92,2.92,0,0,1,28,36.05a3.55,3.55,0,0,1-2.45.79,3.26,3.26,0,0,1-2.11-.61,2.51,2.51,0,0,1-.83-1.83h2.26a.75.75,0,0,0,.19.48.69.69,0,0,0,.49.17.66.66,0,0,0,.56-.25,1.16,1.16,0,0,0,.2-.73V32.81a2.5,2.5,0,0,1-.75.74,1.8,1.8,0,0,1-.92.24,1.87,1.87,0,0,1-1.66-1,5.15,5.15,0,0,1-.59-2.68A5,5,0,0,1,23,27.47a1.83,1.83,0,0,1,1.65-1,1.82,1.82,0,0,1,.89.23,3,3,0,0,1,.79.71ZM25,30.18a3,3,0,0,0,.16,1.13q.16.39.48.39c.2,0,.35-.13.46-.38a3.25,3.25,0,0,0,.15-1.14A3.09,3.09,0,0,0,26.12,29q-.15-.39-.45-.39t-.48.39A3.4,3.4,0,0,0,25,30.18Z"/><path class="cls-1" d="M29.44,34.15V26.72H32v1.11a2.58,2.58,0,0,1,.89-.93,2.18,2.18,0,0,1,1.19-.31,1.62,1.62,0,0,1,1.28.5,2.22,2.22,0,0,1,.44,1.48v5.58H33.15V29.83a.8.8,0,0,0-.13-.51.43.43,0,0,0-.39-.17.44.44,0,0,0-.38.19.92.92,0,0,0-.14.53v4.28Z"/><path class="cls-2" d="M24.6,1.56A22.88,22.88,0,0,0,4.87,35.85L1,47.58a.65.65,0,0,0,.82.82l11.91-3.85A22.57,22.57,0,0,0,24.6,47.3a22.87,22.87,0,0,0,0-45.74Zm0,40.73a17.63,17.63,0,0,1-9.9-3,.65.65,0,0,0-.56-.08L8.48,41l1.69-5.74a.62.62,0,0,0-.08-.53A17.75,17.75,0,1,1,24.6,42.29Z"/></g></svg>